Coordinates
version=1
nRows=29
nColumns=24
inDegrees=yes

Units are S.I. units (second, meters, Newtons, ...)
Angles are in degrees.

endheader
time	pelvis_tilt	pelvis_list	pelvis_rotation	pelvis_tx	pelvis_ty	pelvis_tz	hip_flexion_r	hip_adduction_r	hip_rotation_r	knee_angle_r	ankle_angle_r	subtalar_angle_r	mtp_angle_r	hip_flexion_l	hip_adduction_l	hip_rotation_l	knee_angle_l	ankle_angle_l	subtalar_angle_l	mtp_angle_l	lumbar_extension	lumbar_bending	lumbar_rotation
      3.84500000	    -15.00044260	     -0.50665451	      5.11718376	     -0.33963614	     -0.02787248	     -0.01744708	     37.13466534	     -1.49676409	     -9.10549486	     -5.09911982	     -9.87263066	      4.31987686	     15.63613730	     -1.17164498	      3.53033159	     -3.11646627	    -10.42515287	      2.88519976	     16.42919958	     15.26665447	     13.09701807	     -0.29168373	     -7.26524777
      3.85000000	    -14.95720217	     -0.57835428	      5.20004654	     -0.33352619	     -0.02831279	     -0.01742419	     36.95897818	     -1.40500651	     -9.41393170	     -5.43761147	     -9.83645955	      4.01885167	     15.24611656	     -1.36971169	      3.33561345	     -3.30973970	    -10.76845756	      2.67549378	     16.98257017	     15.68600810	     13.09394834	     -0.17342649	     -7.29291781
      3.85500000	    -14.96068910	     -0.64163588	      5.36342541	     -0.32743793	     -0.02876975	     -0.01749958	     36.79985596	     -1.37370216	     -9.70423254	     -5.74374154	     -9.86464396	      3.73111210	     14.98492537	     -1.48772788	      3.15881681	     -3.31897123	    -11.16594185	      2.45599310	     17.41636560	     15.96495059	     13.13636987	     -0.09845779	     -7.45109000
      3.86000000	    -14.97586444	     -0.66065453	      5.54983587	     -0.32141635	     -0.02921352	     -0.01760187	     36.62797116	     -1.39856968	     -9.90997555	     -6.00810442	     -9.96181146	      3.51523479	     14.86184229	     -1.56910692	      3.03161778	     -3.26203870	    -11.60804417	      2.20898726	     17.81433894	     16.14030989	     13.17211860	     -0.07345178	     -7.61136113
      3.86500000	    -14.91212048	     -0.81486144	      5.67113973	     -0.31504106	     -0.02949967	     -0.01759967	     36.28551825	     -1.22901841	    -10.06844244	     -6.12378600	    -10.17888275	      3.28671333	     14.60309461	     -1.74911219	      2.71602907	     -3.49088047	    -12.00750768	      1.91506885	     18.53268917	     16.62827926	     13.18965835	      0.10926161	     -7.74298726
      3.87000000	    -14.95124411	     -0.93255952	      5.87424392	     -0.30890251	     -0.02984233	     -0.01773409	     36.05998207	     -1.15753677	    -10.23835601	     -6.22230463	    -10.51004826	      3.10427759	     14.47032874	     -1.75061489	      2.47320002	     -3.44329111	    -12.52262269	      1.62258947	     18.92664661	     16.83680062	     13.27732538	      0.23223679	     -7.94336628
      3.87500000	    -14.86661555	     -1.12900038	      6.01057629	     -0.30255153	     -0.02997559	     -0.01772966	     35.61901735	     -0.93970537	    -10.22045103	     -6.14141990	    -10.99639786	      2.85926772	     14.30256307	     -1.88958142	      2.08935601	     -3.68243851	    -13.00582878	      1.26829617	     19.73858864	     17.40073793	     13.26762022	      0.45559419	     -8.08177053
      3.88000000	    -14.86740147	     -1.35630295	      6.18964770	     -0.29627766	     -0.03009577	     -0.01781514	     35.26327823	     -0.72881221	    -10.23765583	     -6.01034603	    -11.62346145	      2.63588873	     14.15143315	     -1.88583551	      1.69371184	     -3.76692211	    -13.56396825	      0.88370856	     20.32859678	     17.79660070	     13.34624145	      0.69295607	     -8.27770130
      3.88500000	    -14.84131999	     -1.62695036	      6.33935438	     -0.28997224	     -0.03009662	     -0.01790042	     34.85167876	     -0.45051048	    -10.18717432	     -5.79195539	    -12.37177921	      2.33525571	     13.98555145	     -1.87637541	      1.23629538	     -3.97689055	    -14.16832849	      0.45015199	     21.01548225	     18.24824068	     13.40600450	      0.99792015	     -8.44597757
      3.89000000	    -14.80476626	     -1.94860712	      6.44162815	     -0.28368568	     -0.03000611	     -0.01794332	     34.42834722	     -0.09455425	    -10.03860230	     -5.53614819	    -13.23287240	      1.96394382	     13.75940395	     -1.85005988	      0.71495824	     -4.23051474	    -14.80449863	     -0.01912444	     21.70200892	     18.74974687	     13.45606772	      1.36804215	     -8.58898391
      3.89500000	    -14.80551198	     -2.29128010	      6.58938528	     -0.27735018	     -0.02983708	     -0.01803022	     34.03253704	      0.25277019	     -9.91118323	     -5.26337351	    -14.10195197	      1.52851217	     13.43824124	     -1.74653535	      0.16554214	     -4.44218774	    -15.49076375	     -0.56229311	     22.42320371	     19.17379966	     13.56489539	      1.73905892	     -8.76342295
      3.90000000	    -14.79672516	     -2.66951471	      6.70318980	     -0.27101381	     -0.02959778	     -0.01809128	     33.63786886	      0.65382582	     -9.69410379	     -5.00905011	    -14.98059011	      0.98208878	     12.98080946	     -1.61878137	     -0.43389473	     -4.72734708	    -16.22643368	     -1.14748732	     23.17196036	     19.62210982	     13.66862141	      2.16156598	     -8.91202515
      3.90500000	    -14.78763810	     -3.06434506	      6.80111915	     -0.26467278	     -0.02929767	     -0.01813283	     33.26025603	      1.07854382	     -9.40846015	     -4.80187540	    -15.82476347	      0.32433107	     12.35544190	     -1.46025744	     -1.06443315	     -5.05410910	    -17.00360803	     -1.79769191	     23.97131549	     20.09311022	     13.77872660	      2.60166886	     -9.05307111
      3.91000000	    -14.73711857	     -3.45309353	      6.79301255	     -0.25832066	     -0.02894791	     -0.01809524	     32.86307895	      1.56108309	     -8.89463090	     -4.66924002	    -16.54132265	     -0.46342630	     11.29895515	     -1.33680094	     -1.70030335	     -5.56517165	    -17.80450039	     -2.55720649	     24.68926684	     20.70213314	     13.83731240	      3.08427318	     -9.06535516
      3.91500000	    -14.74309343	     -3.84412888	      6.83697213	     -0.25188186	     -0.02858019	     -0.01808118	     32.53894017	      2.00612498	     -8.48446541	     -4.60015916	    -17.12309668	     -1.23449725	     10.10207376	     -1.11713821	     -2.35066077	     -6.03944948	    -18.65317880	     -3.41675076	     25.47556544	     21.23684058	     13.98328112	      3.53566435	     -9.12471205
      3.92000000	    -14.75546986	     -4.20085407	      6.91985384	     -0.24562787	     -0.02821718	     -0.01808569	     32.26408318	      2.38234700	     -8.12417141	     -4.61191300	    -17.60408054	     -1.98302066	      9.04429858	     -0.80896711	     -2.98340568	     -6.54827797	    -19.63008871	     -4.30735010	     26.30706610	     21.73773381	     14.10552504	      3.93675262	     -9.24349656
      3.92500000	    -14.77531951	     -4.56860360	      6.91259967	     -0.23915747	     -0.02782169	     -0.01802055	     31.99248463	      2.81909920	     -7.68855986	     -4.64569003	    -17.95943957	     -2.77697606	      7.76590175	     -0.51898817	     -3.63665361	     -7.15052496	    -20.56656344	     -5.39102755	     27.03447632	     22.35418325	     14.27109155	      4.37990803	     -9.24191708
      3.93000000	    -14.80541039	     -4.89163247	      6.94665062	     -0.23291637	     -0.02744270	     -0.01793162	     31.77230604	      3.17577716	     -7.36554801	     -4.74154226	    -18.20890312	     -3.45803499	      6.78132206	     -0.12847435	     -4.27176420	     -7.78773044	    -21.63904389	     -6.52994056	     27.84595919	     22.94923538	     14.40759846	      4.75523378	     -9.28921046
      3.93500000	    -14.84888078	     -5.20424190	      6.97281559	     -0.22661488	     -0.02705546	     -0.01777854	     31.57792813	      3.52514313	     -7.16114451	     -4.86488857	    -18.35856346	     -4.09162836	      6.03845778	      0.30234038	     -4.91843262	     -8.45806159	    -22.74642833	     -7.81460595	     28.63863879	     23.53838261	     14.56988029	      5.10848900	     -9.30997456
      3.94000000	    -14.89676366	     -5.53051361	      6.91598719	     -0.22027420	     -0.02664454	     -0.01760435	     31.37262881	      3.92521377	     -6.82153801	     -4.96925046	    -18.42690606	     -4.69374928	      5.14346622	      0.74970479	     -5.59220273	     -9.24231809	    -23.85742073	     -9.32744733	     29.21904456	     24.42159010	     14.74218402	      5.51563817	     -9.27404303
      3.94500000	    -14.95189778	     -5.82148297	      6.88332504	     -0.21411480	     -0.02624037	     -0.01734697	     31.20446707	      4.27293999	     -6.62536726	     -5.11899941	    -18.38401958	     -5.10994499	      4.54995287	      1.27793074	     -6.26548766	    -10.02480705	    -25.07421755	    -10.93028496	     29.87988555	     25.22417273	     14.88871129	      5.86191166	     -9.25036505
      3.95000000	    -15.01494774	     -6.12082428	      6.82218386	     -0.20792835	     -0.02582774	     -0.01704589	     31.04107040	      4.64429015	     -6.46345041	     -5.26997044	    -18.25624684	     -5.43441273	      4.07618921	      1.84199880	     -6.96915970	    -10.83437076	    -26.31841737	    -12.71447058	     30.41462973	     26.10697087	     15.05019600	      6.22263987	     -9.19945871
      3.95500000	    -15.08123965	     -6.41296823	      6.74913064	     -0.20186224	     -0.02541041	     -0.01668242	     30.88627209	      5.01475169	     -6.31813895	     -5.42759010	    -18.05184550	     -5.63119089	      3.69573238	      2.45906258	     -7.69052475	    -11.63594643	    -27.61801333	    -14.63971983	     30.86573166	     27.02806570	     15.19164371	      6.57363871	     -9.13490786
      3.96000000	    -15.14656717	     -6.71328083	      6.66022233	     -0.19583365	     -0.02498577	     -0.01627462	     30.72907865	      5.40679284	     -6.19289072	     -5.59081471	    -17.75860248	     -5.73977006	      3.31907752	      3.10934238	     -8.43680060	    -12.40382929	    -28.94205224	    -16.72812888	     31.14706035	     28.01422664	     15.32694219	      6.93511341	     -9.03969258
      3.96500000	    -15.21658991	     -7.01749375	      6.56460032	     -0.18988574	     -0.02456580	     -0.01582933	     30.56800299	      5.80681172	     -6.05662542	     -5.73840517	    -17.41465711	     -5.75127668	      2.98080049	      3.80804718	     -9.20148832	    -13.10310063	    -30.30965658	    -18.90632475	     31.33905260	     28.93716092	     15.45591641	      7.29625063	     -8.95662802
      3.97000000	    -15.28754066	     -7.33049525	      6.46592166	     -0.18398387	     -0.02416066	     -0.01537059	     30.39643198	      6.22001303	     -5.92467041	     -5.86941603	    -17.02166705	     -5.71062458	      2.65901426	      4.54377777	     -9.97939945	    -13.70676765	    -31.70400685	    -21.14933464	     31.41147379	     29.79519675	     15.58102234	      7.66546957	     -8.87657559
      3.97500000	    -15.35008384	     -7.64379826	      6.36777665	     -0.17824307	     -0.02374954	     -0.01490262	     30.20903203	      6.63461808	     -5.79161996	     -5.97618155	    -16.63267087	     -5.61989128	      2.29469296	      5.31987660	    -10.75066229	    -14.18659511	    -33.13241044	    -23.42465500	     31.31641354	     30.61037628	     15.67070928	      8.03406342	     -8.79120395
      3.98000000	    -15.42472451	     -7.98528615	      6.27827133	     -0.17249717	     -0.02340706	     -0.01441497	     30.02012348	      7.07426012	     -5.71115353	     -6.05291268	    -16.22896174	     -5.51794553	      2.05523296	      6.14691860	    -11.54834219	    -14.52482952	    -34.59899483	    -25.60267813	     31.27459065	     31.21456433	     15.78378625	      8.41885188	     -8.73935656
      3.98500000	    -15.49103977	     -8.30859396	      6.19916362	     -0.16687377	     -0.02304824	     -0.01401174	     29.80149020	      7.48627088	     -5.62283838	     -6.08786193	    -15.83687701	     -5.37851219	      1.76976616	      7.00188858	    -12.28492877	    -14.70825587	    -36.06289827	    -27.76887880	     30.94885289	     31.83805236	     15.86940587	      8.79031622	     -8.68243223
